<?xml version="1.0" encoding="iso-8859-1"?>
<!-- Uploaded to: SVG Repo, www.svgrepo.com, Generator: SVG Repo Mixer Tools -->
<svg version="1.1" id="Layer_1" xmlns="http://www.w3.org/2000/svg" xmlns:xlink="http://www.w3.org/1999/xlink" 
	 viewBox="0 0 512 512" xml:space="preserve">
<rect x="247.697" y="58.119" style="fill:#D3552B;" width="16.605" height="154.984"/>
<path style="fill:#FECB69;" d="M256,190.962v166.054l143.752-66.422C384.604,241.195,326.625,190.962,256,190.962z"/>
<path style="fill:#FFE0A2;" d="M256,190.962c-70.625,0-128.604,50.232-143.752,99.632L256,357.016l99.471-66.422
	C344.989,241.195,304.87,190.962,256,190.962z"/>
<path style="fill:#4B8D8F;" d="M507.849,260.151c-9.07,18.676-28.215,31.55-50.37,31.55l-33.211,110.149L457.479,512h50.37V260.151z
	"/>
<path style="fill:#63ABA1;" d="M407.109,260.151c-9.069,18.674-28.215,31.55-50.37,31.55s-41.301-12.876-50.37-31.55
	c-9.069,18.674-28.215,31.55-50.37,31.55s-41.301-12.876-50.37-31.55c-9.069,18.674-28.215,31.55-50.37,31.55
	s-41.301-12.876-50.37-31.55c-9.069,18.674-28.215,31.55-50.37,31.55s-41.3-12.875-50.37-31.55V512h453.328V291.702
	C435.324,291.702,416.178,278.826,407.109,260.151z"/>
<g>
	<path style="fill:#FFFFFF;" d="M163.563,366.426h-16.605c-4.586,0-8.303-3.716-8.303-8.303c0-4.586,3.716-8.303,8.303-8.303h16.605
		c4.586,0,8.303,3.716,8.303,8.303C171.866,362.71,168.15,366.426,163.563,366.426z"/>
	<path style="fill:#FFFFFF;" d="M415.412,466.058h-16.605c-4.586,0-8.303-3.716-8.303-8.303c0-4.586,3.716-8.303,8.303-8.303h16.605
		c4.586,0,8.303,3.716,8.303,8.303C423.715,462.342,419.998,466.058,415.412,466.058z"/>
	<path style="fill:#FFFFFF;" d="M465.782,432.848h-16.605c-4.586,0-8.303-3.716-8.303-8.303c0-4.586,3.716-8.303,8.303-8.303h16.605
		c4.586,0,8.303,3.716,8.303,8.303C474.084,429.131,470.368,432.848,465.782,432.848z"/>
	<path style="fill:#FFFFFF;" d="M365.042,399.637h-16.605c-4.586,0-8.303-3.716-8.303-8.303c0-4.586,3.716-8.303,8.303-8.303h16.605
		c4.586,0,8.303,3.716,8.303,8.303C373.345,395.92,369.629,399.637,365.042,399.637z"/>
	<path style="fill:#FFFFFF;" d="M62.824,399.637H46.218c-4.586,0-8.303-3.716-8.303-8.303c0-4.586,3.716-8.303,8.303-8.303h16.605
		c4.586,0,8.303,3.716,8.303,8.303C71.126,395.92,67.41,399.637,62.824,399.637z"/>
</g>
<path style="fill:#95AC66;" d="M332.322,52.247c-10.985-10.985-25.58-17.034-41.097-17.034c-7.906,0-15.569,1.578-22.642,4.571
	c6.784-13.718,20.922-23.179,37.234-23.179c4.586,0,8.303-3.716,8.303-8.303S310.403,0,305.816,0
	C284.702,0,266.179,11.32,256,28.208l-11.07,19.106L256,66.421c22.891,0,41.514,18.622,41.514,41.514
	c0,4.586,3.716,8.303,8.303,8.303s8.303-3.716,8.303-8.303c0-24.356-15.067-45.246-36.363-53.878
	c4.28-1.466,8.815-2.237,13.469-2.237c11.081,0,21.507,4.322,29.355,12.171c1.622,1.621,3.747,2.431,5.872,2.431
	s4.25-0.81,5.872-2.431C335.564,60.747,335.564,55.491,332.322,52.247z"/>
<path style="fill:#AAC36D;" d="M206.184,0c-4.586,0-8.303,3.716-8.303,8.303s3.716,8.303,8.303,8.303
	c16.312,0,30.45,9.461,37.233,23.179c-7.072-2.993-14.736-4.571-22.642-4.571c-15.517,0-30.112,6.049-41.097,17.034
	c-3.242,3.244-3.242,8.5,0,11.742c3.244,3.241,8.5,3.241,11.742,0c7.848-7.849,18.274-12.171,29.355-12.171
	c4.654,0,9.188,0.772,13.469,2.237c-21.296,8.633-36.363,29.523-36.363,53.879c0,4.586,3.716,8.303,8.303,8.303
	c4.586,0,8.303-3.716,8.303-8.303c0-22.891,18.622-41.514,41.514-41.514V28.208C245.821,11.32,227.298,0,206.184,0z"/>
</svg>