<?xml version="1.0" encoding="iso-8859-1"?>

<!DOCTYPE svg PUBLIC "-//W3C//DTD SVG 1.1//EN" "http://www.w3.org/Graphics/SVG/1.1/DTD/svg11.dtd">
<!-- Uploaded to: SVG Repo, www.svgrepo.com, Generator: SVG Repo Mixer Tools -->
<svg height="800px" width="800px" version="1.1" id="_x35_" xmlns="http://www.w3.org/2000/svg" xmlns:xlink="http://www.w3.org/1999/xlink" 
	 viewBox="0 0 512 512"  xml:space="preserve">
<g>
	<linearGradient id="SVGID_1_" gradientUnits="userSpaceOnUse" x1="0" y1="187.2422" x2="281.8787" y2="187.2422">
		<stop  offset="0" style="stop-color:#8B9E73"/>
		<stop  offset="1" style="stop-color:#94B482"/>
	</linearGradient>
	<polygon style="fill:url(#SVGID_1_);" points="281.879,296.242 0,296.242 7.151,285.151 75.152,180 109.515,126.848 140.97,78.242 
		205.394,177.939 206.727,180 	"/>
	<path style="fill:none;stroke:#FFFFFF;stroke-miterlimit:10;" d="M51.185,182.025"/>
	<polygon style="fill:#FAFAFB;" points="181.92,185.441 203.347,199.571 205.702,189.478 140.944,89.334 78.512,186.063 
		110.807,166.188 126.645,183.578 149.624,164.946 	"/>
	<polygon style="opacity:0.04;fill:#040000;" points="281.879,296.242 219.03,296.242 173.939,226.545 143.879,180 139.454,173.212 
		113.151,132.424 109.515,126.848 140.97,78.242 205.394,177.939 206.727,180 	"/>
	<linearGradient id="SVGID_2_" gradientUnits="userSpaceOnUse" x1="128.9091" y1="148.1515" x2="512" y2="148.1515">
		<stop  offset="0" style="stop-color:#8B9E73"/>
		<stop  offset="1" style="stop-color:#94B482"/>
	</linearGradient>
	<polygon style="fill:url(#SVGID_2_);" points="512,296.242 128.909,296.242 173.939,226.545 194.969,194.061 201.818,183.455 
		205.394,177.939 231.03,138.242 284.121,56.182 312.485,12.424 320.485,0.061 357.758,57.697 357.878,57.818 409.879,138.242 	"/>
	<path style="fill:#FAFAFB;" d="M299.378,107.822c0,0,24.301,43.663,24.301,41.131c0-2.532,28.724-54.499,28.724-54.499
		l43.475,30.743L320.92,11.186l-67.577,105.161l20.961-11.645l0.932,31.209L299.378,107.822z"/>
	<polygon style="opacity:0.04;fill:#040000;" points="512,296.242 439.333,296.242 337.212,138.242 332.545,131.03 288.061,62.303 
		284.121,56.182 312.424,12.363 320.424,0 320.485,0.061 357.758,57.697 357.878,57.818 409.879,138.242 	"/>
</g>
</svg>