<?xml version="1.0" encoding="iso-8859-1"?>
<!-- Uploaded to: SVG Repo, www.svgrepo.com, Generator: SVG Repo Mixer Tools -->
<svg version="1.1" id="Layer_1" xmlns="http://www.w3.org/2000/svg" xmlns:xlink="http://www.w3.org/1999/xlink" 
	 viewBox="0 0 495 495" xml:space="preserve">
<g>
	<path style="fill:#B3D8F4;" d="M316.263,121.896c11.304,0,20.5-9.196,20.5-20.5s-9.196-20.5-20.5-20.5s-20.5,9.196-20.5,20.5
		S304.959,121.896,316.263,121.896z"/>
	<path style="fill:#D1E7F8;" d="M109.975,51c11.304,0,20.5-9.196,20.5-20.5s-9.196-20.5-20.5-20.5s-20.5,9.196-20.5,20.5
		S98.671,51,109.975,51z"/>
	<path style="fill:#B3D8F4;" d="M385.025,51c11.304,0,20.5-9.196,20.5-20.5s-9.196-20.5-20.5-20.5s-20.5,9.196-20.5,20.5
		S373.722,51,385.025,51z"/>
	<path style="fill:#B3D8F4;" d="M247.5,51c11.304,0,20.5-9.196,20.5-20.5S258.804,10,247.5,10S227,19.196,227,30.5
		S236.196,51,247.5,51z"/>
	<path style="fill:#D1E7F8;" d="M178.737,121.896c11.304,0,20.5-9.196,20.5-20.5s-9.196-20.5-20.5-20.5s-20.5,9.196-20.5,20.5
		S167.434,121.896,178.737,121.896z"/>
	<rect x="114.106" y="405" style="fill:#6A563D;" width="40" height="40"/>
	<rect x="340.886" y="405" style="fill:#A78966;" width="40" height="40"/>
	<polygon style="fill:#5EAC24;" points="360.89,405 493.25,405 431.25,281 360.89,316.76 	"/>
	<polygon style="fill:#B3D8F4;" points="431.25,281 360.89,140.28 360.89,316.76 	"/>
	<polygon style="fill:#6DC82A;" points="360.89,405 360.89,316.76 290.53,281.01 247.501,367.062 266.47,405 	"/>
	<polygon style="fill:#D1E7F8;" points="360.89,140.28 290.53,281.01 360.89,316.76 	"/>
	<polygon style="fill:#4E901E;" points="134.11,405 266.47,405 204.47,281 134.11,316.76 	"/>
	<polygon style="fill:#B3D8F4;" points="204.47,281 134.11,140.28 134.11,316.76 	"/>
	<polygon style="fill:#5EAC24;" points="134.11,316.76 63.75,281.01 1.75,405 134.11,405 	"/>
	<polygon style="fill:#D1E7F8;" points="134.11,140.28 63.75,281.01 134.11,316.76 	"/>
	<rect y="445" style="fill:#B3D8F4;" width="495" height="40"/>
</g>
</svg>